<mxfile host="65bd71144e">
    <diagram id="iHSKFaC4ZJmlfxs5XxO0" name="Page-1">
        <mxGraphModel dx="1480" dy="840" grid="1" gridSize="10" guides="1" tooltips="1" connect="1" arrows="1" fold="1" page="1" pageScale="1" pageWidth="827" pageHeight="1169" math="0" shadow="0">
            <root>
                <mxCell id="0"/>
                <mxCell id="1" parent="0"/>
                <mxCell id="32" style="edgeStyle=none;rounded=1;html=1;strokeColor=#CC0000;fontSize=12;endArrow=classic;endFill=1;endSize=8;entryX=0;entryY=0;entryDx=90;entryDy=0;entryPerimeter=0;" edge="1" parent="1" source="7" target="30">
                    <mxGeometry relative="1" as="geometry">
                        <mxPoint x="895" y="440" as="targetPoint"/>
                    </mxGeometry>
                </mxCell>
                <mxCell id="7" value="&lt;p style=&quot;line-height: 120%; font-size: 12px;&quot;&gt;Azure AD B2C&lt;/p&gt;" style="shape=cube;whiteSpace=wrap;html=1;boundedLbl=1;backgroundOutline=1;darkOpacity=0.05;darkOpacity2=0.1;rotation=0;flipV=0;flipH=1;size=10;spacing=5;verticalAlign=top;horizontal=1;fontSize=12;" vertex="1" parent="1">
                    <mxGeometry x="800" y="220" width="190" height="150" as="geometry"/>
                </mxCell>
                <mxCell id="23" style="edgeStyle=orthogonalEdgeStyle;html=1;fontSize=12;rounded=1;endArrow=oval;endFill=0;endSize=21;strokeColor=#CC0000;" edge="1" parent="1" source="11">
                    <mxGeometry relative="1" as="geometry">
                        <mxPoint x="360" y="295" as="targetPoint"/>
                    </mxGeometry>
                </mxCell>
                <mxCell id="28" style="edgeStyle=none;rounded=1;html=1;entryX=0;entryY=0;entryDx=190;entryDy=80;entryPerimeter=0;strokeColor=#CC0000;fontSize=12;endArrow=classic;endFill=1;endSize=8;" edge="1" parent="1" source="11" target="13">
                    <mxGeometry relative="1" as="geometry"/>
                </mxCell>
                <mxCell id="29" style="edgeStyle=none;rounded=1;html=1;entryX=0;entryY=0;entryDx=190;entryDy=80;entryPerimeter=0;strokeColor=#CC0000;fontSize=12;endArrow=classic;endFill=1;endSize=8;" edge="1" parent="1" source="11" target="7">
                    <mxGeometry relative="1" as="geometry"/>
                </mxCell>
                <mxCell id="11" value="&lt;p style=&quot;line-height: 120%; font-size: 12px;&quot;&gt;Azure App Service&lt;/p&gt;" style="shape=cube;whiteSpace=wrap;html=1;boundedLbl=1;backgroundOutline=1;darkOpacity=0.05;darkOpacity2=0.1;rotation=0;flipV=0;flipH=1;size=10;spacing=5;verticalAlign=top;horizontal=1;fontSize=12;" vertex="1" parent="1">
                    <mxGeometry x="450" y="215" width="210" height="160" as="geometry"/>
                </mxCell>
                <mxCell id="12" value="&lt;&lt;Web Server&gt;&gt;&#10;bdsagroup4chirprazor" style="shape=module;align=left;spacingLeft=20;align=center;verticalAlign=top;fontSize=12;fontStyle=2" vertex="1" parent="1">
                    <mxGeometry x="470" y="275" width="160" height="60" as="geometry"/>
                </mxCell>
                <mxCell id="13" value="&lt;p style=&quot;line-height: 120%; font-size: 12px;&quot;&gt;Azure SQL server&lt;/p&gt;" style="shape=cube;whiteSpace=wrap;html=1;boundedLbl=1;backgroundOutline=1;darkOpacity=0.05;darkOpacity2=0.1;rotation=0;flipV=0;flipH=1;size=10;spacing=5;verticalAlign=top;horizontal=1;fontSize=12;" vertex="1" parent="1">
                    <mxGeometry x="800" y="20" width="190" height="150" as="geometry"/>
                </mxCell>
                <mxCell id="14" value="&lt;&lt;sql server&gt;&gt;&#10;chirp4db" style="shape=module;align=left;spacingLeft=20;align=center;verticalAlign=top;fontSize=12;fontStyle=2" vertex="1" parent="1">
                    <mxGeometry x="830" y="80" width="115" height="50" as="geometry"/>
                </mxCell>
                <mxCell id="15" value="&lt;&lt;B2C Tenant&gt;&gt;&#10;Chirp4" style="shape=module;align=center;spacingLeft=20;align=center;verticalAlign=top;fontSize=12;fontStyle=2" vertex="1" parent="1">
                    <mxGeometry x="830" y="280" width="120" height="50" as="geometry"/>
                </mxCell>
                <mxCell id="25" style="edgeStyle=none;rounded=1;html=1;strokeColor=#CC0000;fontSize=12;endArrow=classic;endFill=1;endSize=8;" edge="1" parent="1" source="18">
                    <mxGeometry relative="1" as="geometry">
                        <mxPoint x="350" y="295" as="targetPoint"/>
                    </mxGeometry>
                </mxCell>
                <mxCell id="18" value="&lt;p style=&quot;line-height: 120%; font-size: 12px;&quot;&gt;Client&lt;/p&gt;" style="shape=cube;whiteSpace=wrap;html=1;boundedLbl=1;backgroundOutline=1;darkOpacity=0.05;darkOpacity2=0.1;rotation=0;flipV=0;flipH=1;size=10;spacing=5;verticalAlign=top;horizontal=1;fontSize=12;" vertex="1" parent="1">
                    <mxGeometry x="90" y="220" width="170" height="150" as="geometry"/>
                </mxCell>
                <mxCell id="19" value="&lt;&lt;Client&gt;&gt;&#10;Chirp.Razor" style="shape=module;align=left;spacingLeft=20;align=center;verticalAlign=top;fontSize=12;fontStyle=2" vertex="1" parent="1">
                    <mxGeometry x="110" y="280" width="110" height="50" as="geometry"/>
                </mxCell>
                <mxCell id="27" value="HTTP" style="text;html=1;align=center;verticalAlign=middle;resizable=0;points=[];autosize=1;strokeColor=none;fillColor=none;fontSize=12;" vertex="1" parent="1">
                    <mxGeometry x="335" y="305" width="50" height="30" as="geometry"/>
                </mxCell>
                <mxCell id="30" value="&lt;p style=&quot;line-height: 120%; font-size: 12px;&quot;&gt;Github Oauth&lt;/p&gt;" style="shape=cube;whiteSpace=wrap;html=1;boundedLbl=1;backgroundOutline=1;darkOpacity=0.05;darkOpacity2=0.1;rotation=0;flipV=0;flipH=1;size=10;spacing=5;verticalAlign=top;horizontal=1;fontSize=12;" vertex="1" parent="1">
                    <mxGeometry x="800" y="420" width="190" height="150" as="geometry"/>
                </mxCell>
                <mxCell id="31" value="&lt;&lt;B2C Tenant&gt;&gt;&#10;ChirpLogin" style="shape=module;align=center;spacingLeft=20;align=center;verticalAlign=top;fontSize=12;fontStyle=2" vertex="1" parent="1">
                    <mxGeometry x="830" y="480" width="120" height="50" as="geometry"/>
                </mxCell>
            </root>
        </mxGraphModel>
    </diagram>
</mxfile>